<?xml version="1.0" encoding="UTF-8"?>
<!DOCTYPE svg PUBLIC "-//W3C//DTD SVG 1.1//EN" "http://www.w3.org/Graphics/SVG/1.1/DTD/svg11.dtd">
<svg version="1.2" width="492.44mm" height="207.09mm" viewBox="379 9646 49244 20709" preserveAspectRatio="xMidYMid" fill-rule="evenodd" stroke-width="28.222" stroke-linejoin="round" xmlns="http://www.w3.org/2000/svg" xmlns:ooo="http://xml.openoffice.org/svg/export" xmlns:xlink="http://www.w3.org/1999/xlink" xmlns:presentation="http://sun.com/xmlns/staroffice/presentation" xmlns:smil="http://www.w3.org/2001/SMIL20/" xmlns:anim="urn:oasis:names:tc:opendocument:xmlns:animation:1.0" xml:space="preserve">
 <defs class="EmbeddedBulletChars">
  <g id="bullet-char-template-57356" transform="scale(0.00048828125,-0.00048828125)">
   <path d="M 580,1141 L 1163,571 580,0 -4,571 580,1141 Z"/>
  </g>
  <g id="bullet-char-template-57354" transform="scale(0.00048828125,-0.00048828125)">
   <path d="M 8,1128 L 1137,1128 1137,0 8,0 8,1128 Z"/>
  </g>
  <g id="bullet-char-template-10146" transform="scale(0.00048828125,-0.00048828125)">
   <path d="M 174,0 L 602,739 174,1481 1456,739 174,0 Z M 1358,739 L 309,1346 659,739 1358,739 Z"/>
  </g>
  <g id="bullet-char-template-10132" transform="scale(0.00048828125,-0.00048828125)">
   <path d="M 2015,739 L 1276,0 717,0 1260,543 174,543 174,936 1260,936 717,1481 1274,1481 2015,739 Z"/>
  </g>
  <g id="bullet-char-template-10007" transform="scale(0.00048828125,-0.00048828125)">
   <path d="M 0,-2 C -7,14 -16,27 -25,37 L 356,567 C 262,823 215,952 215,954 215,979 228,992 255,992 264,992 276,990 289,987 310,991 331,999 354,1012 L 381,999 492,748 772,1049 836,1024 860,1049 C 881,1039 901,1025 922,1006 886,937 835,863 770,784 769,783 710,716 594,584 L 774,223 C 774,196 753,168 711,139 L 727,119 C 717,90 699,76 672,76 641,76 570,178 457,381 L 164,-76 C 142,-110 111,-127 72,-127 30,-127 9,-110 8,-76 1,-67 -2,-52 -2,-32 -2,-23 -1,-13 0,-2 Z"/>
  </g>
  <g id="bullet-char-template-10004" transform="scale(0.00048828125,-0.00048828125)">
   <path d="M 285,-33 C 182,-33 111,30 74,156 52,228 41,333 41,471 41,549 55,616 82,672 116,743 169,778 240,778 293,778 328,747 346,684 L 369,508 C 377,444 397,411 428,410 L 1163,1116 C 1174,1127 1196,1133 1229,1133 1271,1133 1292,1118 1292,1087 L 1292,965 C 1292,929 1282,901 1262,881 L 442,47 C 390,-6 338,-33 285,-33 Z"/>
  </g>
  <g id="bullet-char-template-9679" transform="scale(0.00048828125,-0.00048828125)">
   <path d="M 813,0 C 632,0 489,54 383,161 276,268 223,411 223,592 223,773 276,916 383,1023 489,1130 632,1184 813,1184 992,1184 1136,1130 1245,1023 1353,916 1407,772 1407,592 1407,412 1353,268 1245,161 1136,54 992,0 813,0 Z"/>
  </g>
  <g id="bullet-char-template-8226" transform="scale(0.00048828125,-0.00048828125)">
   <path d="M 346,457 C 273,457 209,483 155,535 101,586 74,649 74,723 74,796 101,859 155,911 209,963 273,989 346,989 419,989 480,963 531,910 582,859 608,796 608,723 608,648 583,586 532,535 482,483 420,457 346,457 Z"/>
  </g>
  <g id="bullet-char-template-8211" transform="scale(0.00048828125,-0.00048828125)">
   <path d="M -4,459 L 1135,459 1135,606 -4,606 -4,459 Z"/>
  </g>
  <g id="bullet-char-template-61548" transform="scale(0.00048828125,-0.00048828125)">
   <path d="M 173,740 C 173,903 231,1043 346,1159 462,1274 601,1332 765,1332 928,1332 1067,1274 1183,1159 1299,1043 1357,903 1357,740 1357,577 1299,437 1183,322 1067,206 928,148 765,148 601,148 462,206 346,322 231,437 173,577 173,740 Z"/>
  </g>
 </defs>
 <g class="Page">
  <g class="Group">
   <g class="Group">
    <g class="com.sun.star.drawing.ClosedBezierShape">
     <g id="id3">
      <rect class="BoundingBox" stroke="none" fill="none" x="23094" y="21885" width="2373" height="3051"/>
      <path fill="rgb(227,0,24)" stroke="none" d="M 23094,21885 C 23094,22787 23094,23691 23094,24594 L 23094,24903 C 23095,24915 23097,24922 23100,24925 23117,24942 24040,24931 24107,24931 24560,24931 25014,24931 25466,24931 L 25466,24522 23575,24522 23575,23523 25272,23523 25272,23120 23575,23120 23575,22287 25394,22287 25394,21885 23094,21885 Z"/>
     </g>
    </g>
    <g class="com.sun.star.drawing.ClosedBezierShape">
     <g id="id4">
      <rect class="BoundingBox" stroke="none" fill="none" x="28395" y="22678" width="2107" height="3129"/>
      <path fill="rgb(227,0,24)" stroke="none" d="M 28847,23838 C 28847,23515 28924,23249 29185,23105 29570,22894 30085,23161 30085,23774 30085,23996 30079,24187 29910,24355 29847,24416 29813,24449 29729,24491 29484,24613 29187,24543 29012,24344 28985,24314 28963,24282 28941,24249 28868,24140 28847,23981 28847,23838 Z M 28847,23838 L 28847,23838 Z M 28395,23831 C 28395,24099 28447,24254 28576,24449 28777,24751 29039,24910 29423,24910 29639,24910 29841,24836 29996,24707 30019,24687 30032,24667 30056,24651 30056,24773 30050,24878 30041,24989 30033,25093 29989,25180 29939,25246 29888,25315 29817,25365 29732,25398 29587,25456 29379,25458 29228,25428 29179,25418 29111,25397 29069,25371 28972,25313 28905,25217 28905,25097 L 28567,25053 C 28502,25046 28474,25028 28474,25061 28474,25288 28525,25430 28680,25580 28799,25694 29035,25770 29202,25791 29738,25859 30336,25694 30456,25124 30484,24993 30501,24835 30501,24680 L 30501,22725 30092,22725 30092,22955 C 30022,22908 29954,22800 29736,22728 29418,22623 29045,22688 28810,22875 28637,23013 28563,23138 28485,23332 28429,23470 28395,23675 28395,23831 Z"/>
     </g>
    </g>
    <g class="com.sun.star.drawing.ClosedBezierShape">
     <g id="id5">
      <rect class="BoundingBox" stroke="none" fill="none" x="38437" y="22678" width="2216" height="2255"/>
      <path fill="rgb(227,0,24)" stroke="none" d="M 39379,24601 C 38940,24601 38859,24184 39107,24020 39256,23922 39634,23922 39882,23839 39905,23831 39926,23824 39952,23815 39979,23807 40004,23794 40027,23788 40027,24008 40012,24195 39874,24362 39772,24487 39604,24601 39379,24601 Z M 39379,24601 L 39379,24601 Z M 38503,23408 C 38544,23408 38568,23414 38606,23419 38647,23425 38675,23428 38714,23433 38785,23443 38862,23458 38934,23458 38943,23439 38955,23390 38963,23365 39054,23093 39256,23034 39530,23034 39585,23034 39669,23043 39721,23052 39840,23074 39916,23114 40003,23187 40085,23256 40070,23317 40070,23444 40038,23444 39980,23465 39948,23472 39657,23543 39251,23563 39024,23620 38842,23666 38667,23759 38556,23914 38395,24139 38397,24466 38576,24671 38777,24900 39001,24932 39322,24932 39492,24932 39641,24886 39766,24836 39936,24769 39993,24705 40106,24630 40117,24678 40122,24717 40137,24764 L 40185,24888 40652,24888 C 40645,24859 40589,24782 40558,24666 40537,24585 40530,24480 40523,24385 40519,24339 40522,24276 40522,24228 40522,24168 40515,24128 40515,24077 40515,23846 40537,23306 40487,23148 40405,22885 40229,22774 39966,22714 39806,22678 39563,22669 39385,22688 39146,22715 38865,22784 38702,22968 38610,23072 38505,23290 38503,23408 Z"/>
     </g>
    </g>
    <g class="com.sun.star.drawing.ClosedBezierShape">
     <g id="id6">
      <rect class="BoundingBox" stroke="none" fill="none" x="43689" y="22675" width="2215" height="2259"/>
      <path fill="rgb(227,0,24)" stroke="none" d="M 44220,24292 C 44220,24166 44254,24076 44365,24012 44443,23968 44558,23944 44661,23928 44774,23911 44885,23900 44988,23874 45059,23857 45211,23818 45277,23782 45277,24095 45213,24381 44925,24523 44800,24586 44648,24624 44480,24581 44350,24548 44220,24441 44220,24292 Z M 44220,24292 L 44220,24292 Z M 43753,23402 L 44184,23459 C 44188,23408 44227,23324 44250,23280 44311,23155 44383,23098 44520,23060 44709,23008 45025,23028 45177,23128 45318,23221 45320,23248 45320,23438 45282,23447 45244,23458 45201,23469 45102,23494 44916,23526 44817,23538 44728,23548 44640,23558 44548,23571 44227,23615 43920,23680 43751,23996 43695,24098 43689,24196 43689,24314 43689,24519 43816,24685 43934,24774 44207,24978 44682,24968 44994,24844 45014,24836 45023,24829 45043,24821 45196,24757 45287,24668 45357,24631 45361,24672 45376,24728 45387,24766 45398,24806 45418,24848 45436,24882 L 45903,24882 C 45847,24776 45784,24642 45781,24502 45780,24459 45776,24442 45774,24408 45772,24377 45774,24339 45774,24307 45774,24263 45768,24248 45767,24213 45758,24047 45767,23607 45767,23409 45767,23174 45716,22971 45530,22840 45250,22645 44754,22648 44411,22721 44194,22768 43984,22885 43871,23073 43828,23145 43753,23321 43753,23402 Z"/>
     </g>
    </g>
    <g class="com.sun.star.drawing.ClosedBezierShape">
     <g id="id7">
      <rect class="BoundingBox" stroke="none" fill="none" x="30924" y="22677" width="2200" height="2344"/>
      <path fill="rgb(227,0,24)" stroke="none" d="M 31994,23034 C 32200,23034 32335,23062 32485,23211 32570,23296 32603,23384 32631,23497 32639,23527 32648,23607 32656,23624 L 31405,23624 C 31405,23544 31436,23440 31462,23386 31560,23189 31753,23034 31994,23034 Z M 31994,23034 L 31994,23034 Z M 30924,23875 C 30924,24134 30996,24458 31162,24636 31188,24663 31203,24684 31231,24711 31594,25074 32310,25123 32738,24827 32786,24794 32857,24734 32893,24688 33012,24534 33022,24530 33099,24310 33122,24244 33145,24260 32921,24235 L 32656,24205 C 32631,24310 32568,24398 32504,24478 32458,24536 32393,24579 32326,24609 32113,24704 31824,24667 31645,24527 31516,24425 31431,24281 31398,24119 31389,24074 31386,24019 31376,23976 31672,23976 31947,23968 32246,23968 32324,23968 32384,23961 32455,23961 L 32900,23961 C 32978,23961 33034,23954 33115,23954 33118,23919 33123,23935 33123,23875 33123,23683 33098,23518 33050,23373 32986,23179 32940,23140 32838,23009 32771,22922 32603,22812 32505,22768 32419,22729 32260,22686 32160,22682 32136,22680 32115,22683 32090,22680 32011,22670 31840,22688 31764,22704 31551,22748 31356,22859 31213,23014 L 31091,23179 C 30972,23380 30924,23619 30924,23875 Z"/>
     </g>
    </g>
    <g class="com.sun.star.drawing.ClosedBezierShape">
     <g id="id8">
      <rect class="BoundingBox" stroke="none" fill="none" x="36168" y="21885" width="1949" height="3005"/>
      <path fill="rgb(227,0,24)" stroke="none" d="M 36168,24889 L 36613,24889 36613,23724 C 36613,23449 36678,23218 36942,23105 37246,22974 37671,23044 37671,23531 L 37671,24889 38116,24889 38116,23566 C 38116,23351 38087,23150 38008,23014 37969,22946 37913,22886 37851,22841 37635,22685 37305,22641 37040,22707 36940,22732 36885,22759 36805,22803 36691,22865 36647,22926 36613,22949 L 36613,21885 36168,21885 36168,24889 Z"/>
     </g>
    </g>
    <g class="com.sun.star.drawing.ClosedBezierShape">
     <g id="id9">
      <rect class="BoundingBox" stroke="none" fill="none" x="26046" y="22677" width="1942" height="2313"/>
      <path fill="rgb(227,0,24)" stroke="none" d="M 26448,22991 L 26448,22725 26046,22725 26046,24989 26484,24989 26484,23817 C 26484,23450 26525,23248 26794,23113 27016,23000 27364,23032 27478,23240 27553,23373 27549,23607 27549,23766 L 27549,24989 27987,24989 27987,23479 C 27987,23112 27871,22875 27560,22749 27270,22634 26879,22655 26625,22830 26556,22878 26501,22930 26448,22991 Z"/>
     </g>
    </g>
    <g class="com.sun.star.drawing.ClosedBezierShape">
     <g id="id10">
      <rect class="BoundingBox" stroke="none" fill="none" x="33561" y="22677" width="1950" height="2213"/>
      <path fill="rgb(227,0,24)" stroke="none" d="M 33963,22991 L 33963,22725 33561,22725 33561,24889 34006,24889 34006,23710 C 34006,23520 34055,23324 34149,23226 34296,23072 34581,22996 34808,23087 35029,23175 35064,23361 35064,23588 L 35064,24889 35509,24889 35509,23631 C 35509,23405 35510,23223 35409,23026 35213,22649 34534,22573 34150,22825 34113,22850 34089,22872 34053,22900 34002,22939 33990,22973 33963,22991 Z"/>
     </g>
    </g>
    <g class="com.sun.star.drawing.ClosedBezierShape">
     <g id="id11">
      <rect class="BoundingBox" stroke="none" fill="none" x="41139" y="22677" width="1317" height="2212"/>
      <path fill="rgb(227,0,24)" stroke="none" d="M 41542,22998 L 41542,22725 41139,22725 41139,24888 41578,24888 41578,23846 C 41578,23533 41626,23113 42009,23113 42121,23113 42230,23160 42304,23199 42320,23132 42454,22854 42455,22804 42430,22797 42378,22763 42344,22749 42059,22632 41809,22643 41614,22897 L 41542,22998 Z"/>
     </g>
    </g>
    <g class="com.sun.star.drawing.ClosedBezierShape">
     <g id="id12">
      <rect class="BoundingBox" stroke="none" fill="none" x="42805" y="22726" width="448" height="2164"/>
      <path fill="rgb(227,0,24)" stroke="none" d="M 42806,24889 L 43230,24889 C 43247,24889 43252,24884 43252,24867 L 43252,22726 42806,22726 42806,24889 Z"/>
     </g>
    </g>
    <g class="com.sun.star.drawing.ClosedBezierShape">
     <g id="id13">
      <rect class="BoundingBox" stroke="none" fill="none" x="42805" y="21885" width="448" height="476"/>
      <path fill="rgb(227,0,24)" stroke="none" d="M 42806,22360 L 43230,22360 C 43247,22360 43252,22355 43252,22338 L 43252,21885 42806,21885 42806,22360 Z"/>
     </g>
    </g>
   </g>
   <g class="com.sun.star.drawing.PolyPolygonShape">
    <g id="id14">
     <rect class="BoundingBox" stroke="none" fill="none" x="12732" y="18837" width="36891" height="1689"/>
     <path fill="rgb(227,0,22)" stroke="none" d="M 12732,18837 L 12732,20525 49622,20525 49622,18837 12732,18837 Z"/>
    </g>
   </g>
   <g class="com.sun.star.drawing.PolyPolygonShape">
    <g id="id15">
     <rect class="BoundingBox" stroke="none" fill="none" x="9500" y="14846" width="1690" height="10311"/>
     <path fill="rgb(227,0,22)" stroke="none" d="M 9500,14846 L 9500,25156 11188,25156 11188,14846 9500,14846 Z"/>
    </g>
   </g>
   <g class="Group">
    <g class="com.sun.star.drawing.ClosedBezierShape">
     <g id="id16">
      <rect class="BoundingBox" stroke="none" fill="none" x="32406" y="13389" width="3647" height="4083"/>
      <path fill="rgb(227,0,22)" stroke="none" d="M 34011,15186 L 32981,15186 32981,13859 34272,13859 C 34569,13859 34875,13923 35030,14148 35202,14397 35148,14808 34918,14994 34699,15171 34339,15186 34011,15186 Z M 34011,15186 L 34011,15186 Z M 32406,17471 L 32981,17471 32981,15674 33802,15674 C 33982,15674 34161,15780 34274,15899 34402,16032 34515,16163 34616,16325 34647,16375 34668,16397 34702,16448 L 35355,17471 36052,17471 C 36035,17408 35234,16153 35062,15983 L 34852,15774 C 34790,15719 34643,15657 34604,15604 34850,15604 35203,15448 35376,15294 35890,14838 35797,13998 35320,13632 35081,13450 34726,13389 34307,13389 L 32406,13389 32406,17471 Z"/>
     </g>
    </g>
    <g class="com.sun.star.drawing.ClosedBezierShape">
     <g id="id17">
      <rect class="BoundingBox" stroke="none" fill="none" x="38073" y="13388" width="3263" height="4090"/>
      <path fill="rgb(227,0,22)" stroke="none" d="M 38073,17470 L 38613,17470 38613,14313 40501,17083 C 40548,17152 40592,17210 40638,17278 40807,17531 40658,17470 41335,17470 L 41335,13389 40795,13389 40795,16546 40728,16455 C 40142,15570 39515,14679 38924,13793 38861,13700 38684,13469 38665,13389 L 38073,13389 38073,17470 Z"/>
     </g>
    </g>
    <g class="com.sun.star.drawing.ClosedBezierShape">
     <g id="id18">
      <rect class="BoundingBox" stroke="none" fill="none" x="41944" y="13319" width="3960" height="4221"/>
      <path fill="rgb(227,0,22)" stroke="none" d="M 43968,17051 C 43694,17051 43509,17021 43287,16912 43151,16846 42969,16705 42874,16593 42478,16127 42456,15380 42600,14811 42860,13780 44028,13599 44642,14005 44944,14206 45095,14402 45213,14759 45441,15451 45319,16519 44567,16900 44411,16980 44194,17051 43968,17051 Z M 43968,17051 L 43968,17051 Z M 43831,13319 L 44014,13319 C 44417,13335 44808,13465 45110,13694 45306,13844 45358,13904 45490,14081 L 45685,14409 C 45713,14475 45728,14518 45755,14584 45834,14780 45913,15242 45901,15444 45871,15969 45740,16566 45359,16942 44384,17907 42709,17683 42136,16406 41942,15971 41945,15762 41945,15306 41945,14878 42072,14480 42290,14152 42651,13609 43242,13343 43831,13319 Z"/>
     </g>
    </g>
    <g class="com.sun.star.drawing.ClosedBezierShape">
     <g id="id19">
      <rect class="BoundingBox" stroke="none" fill="none" x="23094" y="13322" width="3665" height="4216"/>
      <path fill="rgb(227,0,22)" stroke="none" d="M 23094,15377 C 23094,15794 23175,16137 23320,16494 23368,16612 23416,16684 23480,16787 23719,17170 24121,17416 24569,17495 25558,17671 26380,17296 26703,16334 26720,16284 26738,16201 26757,16161 L 26183,16018 C 26161,16265 25995,16566 25819,16742 25273,17292 23686,17250 23686,15481 23686,15042 23748,14596 24007,14249 24400,13728 25437,13614 25890,14168 26059,14377 26049,14476 26130,14644 L 26688,14522 C 26672,14455 26623,14338 26593,14267 26423,13859 26090,13556 25665,13416 25090,13227 24346,13330 23893,13664 23786,13743 23715,13805 23621,13898 23269,14245 23094,14857 23094,15377 Z"/>
     </g>
    </g>
    <g class="com.sun.star.drawing.PolyPolygonShape">
     <g id="id20">
      <rect class="BoundingBox" stroke="none" fill="none" x="28639" y="13389" width="3280" height="4083"/>
      <path fill="rgb(227,0,22)" stroke="none" d="M 28639,13894 L 29999,13894 29999,17471 30575,17471 30575,13894 31918,13894 31918,13389 28639,13389 28639,13894 Z"/>
     </g>
    </g>
    <g class="com.sun.star.drawing.PolyPolygonShape">
     <g id="id21">
      <rect class="BoundingBox" stroke="none" fill="none" x="36572" y="13389" width="579" height="4083"/>
      <path fill="rgb(227,0,22)" stroke="none" d="M 36573,17471 L 37150,17471 37150,13389 36573,13389 36573,17471 Z"/>
     </g>
    </g>
    <g class="com.sun.star.drawing.PolyPolygonShape">
     <g id="id22">
      <rect class="BoundingBox" stroke="none" fill="none" x="27436" y="13389" width="560" height="4083"/>
      <path fill="rgb(227,0,22)" stroke="none" d="M 27436,17471 L 27995,17471 27995,13389 27436,13389 27436,17471 Z"/>
     </g>
    </g>
   </g>
   <g class="com.sun.star.drawing.ClosedBezierShape">
    <g id="id23">
     <rect class="BoundingBox" stroke="none" fill="none" x="379" y="9646" width="19933" height="20709"/>
     <path fill="rgb(227,0,22)" stroke="none" d="M 10733,9647 C 15056,9647 18761,12297 20310,16061 L 18366,17183 C 17220,14080 14234,11867 10733,11867 6241,11867 2599,15508 2599,20001 2599,24492 6241,28134 10733,28134 14234,28134 17220,25921 18366,22817 L 20310,23940 C 18761,27704 15056,30354 10733,30354 5014,30354 379,25719 379,20001 379,14282 5014,9647 10733,9647 Z"/>
    </g>
   </g>
  </g>
 </g>
</svg>